<svg width="1323" height="577" viewBox="0 0 1323 577" fill="none" xmlns="http://www.w3.org/2000/svg">
<g filter="url(#filter0_dd_3_3113)">
<rect x="3" y="2" width="1317" height="570.85" rx="16" fill="white"/>
<path d="M44.1548 59.6378H47.1023C47.0597 57.0455 44.929 55.2557 41.6903 55.2557C38.5014 55.2557 36.1648 57.017 36.179 59.6591C36.1719 61.804 37.6847 63.0327 40.142 63.6222L41.7259 64.0199C43.3097 64.4034 44.1903 64.858 44.1974 65.8381C44.1903 66.9034 43.1818 67.6278 41.6193 67.6278C40.0213 67.6278 38.8707 66.8892 38.7713 65.4332H35.7955C35.8736 68.5795 38.125 70.206 41.6548 70.206C45.206 70.206 47.294 68.5085 47.3011 65.8452C47.294 63.4233 45.4688 62.1378 42.9403 61.5696L41.6335 61.2571C40.3693 60.9659 39.3111 60.4972 39.3324 59.4531C39.3324 58.5156 40.1634 57.8267 41.669 57.8267C43.1392 57.8267 44.0412 58.4943 44.1548 59.6378ZM52.4237 70.206C54.0359 70.206 55.0799 69.5028 55.6126 68.4872H55.6978V70H58.5671V62.642C58.5671 60.0426 56.3654 58.9489 53.9364 58.9489C51.3228 58.9489 49.604 60.1989 49.185 62.1875L51.9833 62.4148C52.1893 61.6903 52.8356 61.1577 53.9222 61.1577C54.9521 61.1577 55.5415 61.6761 55.5415 62.571V62.6136C55.5415 63.3168 54.7958 63.4091 52.8995 63.5938C50.7404 63.7926 48.8015 64.517 48.8015 66.9531C48.8015 69.1122 50.3427 70.206 52.4237 70.206ZM53.2901 68.1179C52.3597 68.1179 51.6921 67.6847 51.6921 66.8537C51.6921 66.0014 52.3952 65.5824 53.4606 65.4332C54.1211 65.3409 55.2006 65.1847 55.5629 64.9432V66.1009C55.5629 67.2443 54.6183 68.1179 53.2901 68.1179ZM63.94 55.4545H60.9144V70H63.94V55.4545ZM71.3352 70.2131C74.0341 70.2131 75.8523 68.8991 76.2784 66.875L73.4801 66.6903C73.1747 67.5213 72.3935 67.9545 71.3849 67.9545C69.8722 67.9545 68.9134 66.9531 68.9134 65.3267V65.3196H76.3423V64.4886C76.3423 60.7812 74.098 58.9489 71.2145 58.9489C68.0043 58.9489 65.9233 61.2287 65.9233 64.5952C65.9233 68.054 67.9759 70.2131 71.3352 70.2131ZM68.9134 63.4446C68.9773 62.2017 69.9219 61.2074 71.2642 61.2074C72.5781 61.2074 73.4872 62.1449 73.4943 63.4446H68.9134ZM87.3935 62.2017C87.1236 60.1918 85.5043 58.9489 82.7486 58.9489C79.9574 58.9489 78.1179 60.2415 78.125 62.3438C78.1179 63.9773 79.1477 65.0355 81.2784 65.4616L83.1676 65.8381C84.1193 66.0298 84.5526 66.3778 84.5668 66.9247C84.5526 67.571 83.8494 68.0327 82.7912 68.0327C81.7116 68.0327 80.9943 67.571 80.8097 66.6832L77.8338 66.8395C78.1179 68.9276 79.8935 70.2131 82.7841 70.2131C85.6108 70.2131 87.6349 68.7713 87.642 66.6193C87.6349 65.0426 86.6051 64.098 84.4886 63.6648L82.5142 63.267C81.4986 63.0469 81.1222 62.6989 81.1293 62.1733C81.1222 61.5199 81.8608 61.0938 82.7983 61.0938C83.8494 61.0938 84.4744 61.669 84.6236 62.3722L87.3935 62.2017Z" fill="#111827"/>
<path d="M111 59V63M111 67H111.01M120 63C120 64.1819 119.767 65.3522 119.315 66.4442C118.863 67.5361 118.2 68.5282 117.364 69.364C116.528 70.1997 115.536 70.8626 114.444 71.3149C113.352 71.7672 112.182 72 111 72C109.818 72 108.648 71.7672 107.556 71.3149C106.464 70.8626 105.472 70.1997 104.636 69.364C103.8 68.5282 103.137 67.5361 102.685 66.4442C102.233 65.3522 102 64.1819 102 63C102 60.6131 102.948 58.3239 104.636 56.636C106.324 54.9482 108.613 54 111 54C113.387 54 115.676 54.9482 117.364 56.636C119.052 58.3239 120 60.6131 120 63Z" stroke="#9CA3AF" stroke-width="2" stroke-linecap="round" stroke-linejoin="round"/>
<path d="M35.9048 137H42.8849V135.459H38.4503V135.389L40.2053 133.604C42.1839 131.705 42.7308 130.781 42.7308 129.632C42.7308 127.927 41.3438 126.679 39.2955 126.679C37.277 126.679 35.8452 127.932 35.8452 129.866H37.6001C37.6001 128.827 38.2564 128.175 39.2706 128.175C40.2401 128.175 40.9609 128.767 40.9609 129.727C40.9609 130.577 40.4439 131.183 39.4396 132.202L35.9048 135.668V137ZM44.1974 135.111H49.0547V137H50.8146V135.111H52.1172V133.594H50.8146V126.818H48.5178L44.1974 133.644V135.111ZM49.0746 133.594H46.0866V133.515L48.995 128.906H49.0746V133.594ZM57.4691 137.194C59.9251 137.199 61.3917 135.26 61.3917 131.919C61.3917 128.598 59.9151 126.679 57.4691 126.679C55.0231 126.679 53.5515 128.593 53.5465 131.919C53.5465 135.255 55.0131 137.194 57.4691 137.194ZM57.4691 135.638C56.2013 135.638 55.4059 134.365 55.4109 131.919C55.4158 129.493 56.2063 128.215 57.4691 128.215C58.7369 128.215 59.5273 129.493 59.5323 131.919C59.5323 134.365 58.7418 135.638 57.4691 135.638ZM63.1429 137H64.9874V133.967L66.1159 132.635L69.1536 137H71.3709L67.3986 131.387L71.3361 126.818H69.084L65.1117 131.496H64.9874V126.818H63.1429V137Z" fill="#6B7280"/>
<path d="M35.9048 197H42.8849V195.459H38.4503V195.389L40.2053 193.604C42.1839 191.705 42.7308 190.781 42.7308 189.632C42.7308 187.927 41.3438 186.679 39.2955 186.679C37.277 186.679 35.8452 187.932 35.8452 189.866H37.6001C37.6001 188.827 38.2564 188.175 39.2706 188.175C40.2401 188.175 40.9609 188.767 40.9609 189.727C40.9609 190.577 40.4439 191.183 39.4396 192.202L35.9048 195.668V197ZM48.3636 197.194C50.8196 197.199 52.2862 195.26 52.2862 191.919C52.2862 188.598 50.8097 186.679 48.3636 186.679C45.9176 186.679 44.446 188.593 44.4411 191.919C44.4411 195.255 45.9077 197.194 48.3636 197.194ZM48.3636 195.638C47.0959 195.638 46.3004 194.365 46.3054 191.919C46.3104 189.493 47.1009 188.215 48.3636 188.215C49.6314 188.215 50.4219 189.493 50.4268 191.919C50.4268 194.365 49.6364 195.638 48.3636 195.638ZM57.7015 197.194C60.1575 197.199 61.6241 195.26 61.6241 191.919C61.6241 188.598 60.1475 186.679 57.7015 186.679C55.2555 186.679 53.7839 188.593 53.7789 191.919C53.7789 195.255 55.2456 197.194 57.7015 197.194ZM57.7015 195.638C56.4338 195.638 55.6383 194.365 55.6433 191.919C55.6483 189.493 56.4387 188.215 57.7015 188.215C58.9693 188.215 59.7598 189.493 59.7647 191.919C59.7647 194.365 58.9743 195.638 57.7015 195.638ZM63.3754 197H65.2198V193.967L66.3484 192.635L69.386 197H71.6033L67.631 191.387L71.5685 186.818H69.3164L65.3441 191.496H65.2198V186.818H63.3754V197Z" fill="#6B7280"/>
<path d="M40.0462 246.818H38.2912L35.7607 248.444V250.134L38.142 248.613H38.2017V257H40.0462V246.818ZM46.3601 257.139C48.5575 257.154 50.0341 255.643 50.0291 253.629C50.0341 251.705 48.6619 250.313 46.8771 250.313C45.7834 250.313 44.8189 250.845 44.3317 251.72H44.2621C44.267 249.577 45.0526 248.275 46.4645 248.275C47.3395 248.275 47.9311 248.782 48.12 249.562H49.9347C49.7159 247.917 48.3885 246.679 46.4645 246.679C44.0185 246.679 42.4723 248.717 42.4723 252.197C42.4673 255.931 44.4062 257.129 46.3601 257.139ZM46.3501 255.648C45.2614 255.648 44.4659 254.748 44.4609 253.684C44.4709 252.615 45.2962 251.72 46.375 251.72C47.4538 251.72 48.2443 252.575 48.2393 253.669C48.2443 254.783 47.429 255.648 46.3501 255.648ZM55.473 257.194C57.929 257.199 59.3956 255.26 59.3956 251.919C59.3956 248.598 57.919 246.679 55.473 246.679C53.027 246.679 51.5554 248.593 51.5504 251.919C51.5504 255.255 53.017 257.194 55.473 257.194ZM55.473 255.638C54.2053 255.638 53.4098 254.365 53.4148 251.919C53.4197 249.493 54.2102 248.215 55.473 248.215C56.7408 248.215 57.5312 249.493 57.5362 251.919C57.5362 254.365 56.7457 255.638 55.473 255.638ZM61.1468 257H62.9913V253.967L64.1199 252.635L67.1575 257H69.3748L65.4025 251.387L69.34 246.818H67.0879L63.1156 251.496H62.9913V246.818H61.1468V257Z" fill="#6B7280"/>
<path d="M40.0462 306.818H38.2912L35.7607 308.444V310.134L38.142 308.613H38.2017V317H40.0462V306.818ZM42.6314 317H49.6115V315.459H45.1768V315.389L46.9318 313.604C48.9105 311.705 49.4574 310.781 49.4574 309.632C49.4574 307.927 48.0703 306.679 46.022 306.679C44.0036 306.679 42.5717 307.932 42.5717 309.866H44.3267C44.3267 308.827 44.983 308.175 45.9972 308.175C46.9666 308.175 47.6875 308.767 47.6875 309.727C47.6875 310.577 47.1705 311.183 46.1662 312.202L42.6314 315.668V317ZM55.0902 317.194C57.5462 317.199 59.0128 315.26 59.0128 311.919C59.0128 308.598 57.5362 306.679 55.0902 306.679C52.6442 306.679 51.1726 308.593 51.1676 311.919C51.1676 315.255 52.6342 317.194 55.0902 317.194ZM55.0902 315.638C53.8224 315.638 53.027 314.365 53.032 311.919C53.0369 309.493 53.8274 308.215 55.0902 308.215C56.358 308.215 57.1484 309.493 57.1534 311.919C57.1534 314.365 56.3629 315.638 55.0902 315.638ZM60.764 317H62.6085V313.967L63.737 312.635L66.7747 317H68.992L65.0197 311.387L68.9572 306.818H66.7051L62.7328 311.496H62.6085V306.818H60.764V317Z" fill="#6B7280"/>
<path d="M39.5241 377.139C41.7266 377.139 43.3026 375.926 43.3075 374.271C43.3026 372.998 42.3629 371.934 41.1797 371.735V371.665C42.2088 371.437 42.9247 370.512 42.9297 369.408C42.9247 367.842 41.483 366.679 39.5241 366.679C37.5504 366.679 36.1087 367.837 36.1136 369.408C36.1087 370.512 36.8146 371.437 37.8636 371.665V371.735C36.6605 371.934 35.7308 372.998 35.7358 374.271C35.7308 375.926 37.3018 377.139 39.5241 377.139ZM39.5241 375.717C38.3707 375.717 37.625 375.081 37.6349 374.141C37.625 373.167 38.4254 372.476 39.5241 372.476C40.608 372.476 41.4034 373.172 41.4134 374.141C41.4034 375.081 40.6626 375.717 39.5241 375.717ZM39.5241 371.079C38.5795 371.079 37.9034 370.467 37.9134 369.582C37.9034 368.707 38.5597 368.121 39.5241 368.121C40.4737 368.121 41.125 368.707 41.1349 369.582C41.125 370.472 40.4538 371.079 39.5241 371.079ZM48.7054 377.194C51.1614 377.199 52.628 375.26 52.628 371.919C52.628 368.598 51.1515 366.679 48.7054 366.679C46.2594 366.679 44.7878 368.593 44.7828 371.919C44.7828 375.255 46.2495 377.194 48.7054 377.194ZM48.7054 375.638C47.4377 375.638 46.6422 374.365 46.6472 371.919C46.6522 369.493 47.4426 368.215 48.7054 368.215C49.9732 368.215 50.7637 369.493 50.7686 371.919C50.7686 374.365 49.9782 375.638 48.7054 375.638ZM54.3793 377H56.2237V373.967L57.3523 372.635L60.3899 377H62.6072L58.6349 371.387L62.5724 366.818H60.3203L56.348 371.496H56.2237V366.818H54.3793V377Z" fill="#6B7280"/>
<path d="M35.7209 435.111H40.5781V437H42.3381V435.111H43.6406V433.594H42.3381V426.818H40.0412L35.7209 433.644V435.111ZM40.598 433.594H37.6101V433.515L40.5185 428.906H40.598V433.594ZM48.9925 437.194C51.4485 437.199 52.9151 435.26 52.9151 431.919C52.9151 428.598 51.4386 426.679 48.9925 426.679C46.5465 426.679 45.0749 428.593 45.07 431.919C45.07 435.255 46.5366 437.194 48.9925 437.194ZM48.9925 435.638C47.7248 435.638 46.9293 434.365 46.9343 431.919C46.9393 429.493 47.7298 428.215 48.9925 428.215C50.2603 428.215 51.0508 429.493 51.0558 431.919C51.0558 434.365 50.2653 435.638 48.9925 435.638ZM54.6664 437H56.5108V433.967L57.6394 432.635L60.677 437H62.8944L58.9221 431.387L62.8596 426.818H60.6074L56.6351 431.496H56.5108V426.818H54.6664V437Z" fill="#6B7280"/>
<path d="M39.6683 497.194C42.1243 497.199 43.5909 495.26 43.5909 491.919C43.5909 488.598 42.1143 486.679 39.6683 486.679C37.2223 486.679 35.7507 488.593 35.7457 491.919C35.7457 495.255 37.2124 497.194 39.6683 497.194ZM39.6683 495.638C38.4006 495.638 37.6051 494.365 37.6101 491.919C37.6151 489.493 38.4055 488.215 39.6683 488.215C40.9361 488.215 41.7266 489.493 41.7315 491.919C41.7315 494.365 40.9411 495.638 39.6683 495.638ZM45.3422 497H47.1866V493.967L48.3152 492.635L51.3528 497H53.5701L49.5978 491.387L53.5353 486.818H51.2832L47.3109 491.496H47.1866V486.818H45.3422V497Z" fill="#6B7280"/>
<line x1="120" y1="132.35" x2="1279.53" y2="132.35" stroke="#F3F4F6"/>
<line x1="120" y1="192.35" x2="1279.53" y2="192.35" stroke="#F3F4F6"/>
<line x1="120" y1="252.35" x2="1279.53" y2="252.35" stroke="#F3F4F6"/>
<line x1="120" y1="312.35" x2="1279.53" y2="312.35" stroke="#F3F4F6"/>
<line x1="120" y1="372.35" x2="1279.53" y2="372.35" stroke="#F3F4F6"/>
<line x1="120" y1="432.35" x2="1279.53" y2="432.35" stroke="#F3F4F6"/>
<line x1="120" y1="492.35" x2="1279.53" y2="492.35" stroke="#F3F4F6"/>
<path d="M514.5 131.79V512.881" stroke="#E5E7EB" stroke-linecap="square" stroke-dasharray="5 5"/>
<g clip-path="url(#clip0_3_3113)">
<g filter="url(#filter1_dd_3_3113)">
<path fill-rule="evenodd" clip-rule="evenodd" d="M519.009 344.3C517.003 346.767 513.749 346.767 511.743 344.3L508.354 340.715C507.41 339.716 506.096 339.15 504.721 339.15H464.184C457.165 339.15 454.62 338.454 452.055 337.147C449.489 335.84 447.475 333.921 446.103 331.477C444.731 329.032 444 326.608 444 319.921V271.38C444 264.693 444.731 262.268 446.103 259.824C447.475 257.38 449.489 255.461 452.055 254.154C454.62 252.847 457.165 252.15 464.184 252.15L571.816 252.15C578.835 252.15 581.38 252.847 583.945 254.154C586.511 255.461 588.525 257.38 589.897 259.824C591.269 262.268 592 264.693 592 271.38V319.921C592 326.608 591.269 329.032 589.897 331.477C588.525 333.921 586.511 335.84 583.945 337.147C581.38 338.454 578.835 339.15 571.816 339.15H528.185C525.435 339.15 522.807 340.283 520.918 342.281L519.009 344.3Z" fill="white"/>
</g>
<path d="M456.839 275H462.584V273.871H458.655V273.807L460.389 271.991C461.987 270.376 462.443 269.605 462.443 268.629C462.443 267.227 461.301 266.153 459.656 266.153C458.024 266.153 456.831 267.21 456.831 268.804H458.088C458.084 267.866 458.689 267.253 459.631 267.253C460.517 267.253 461.19 267.798 461.19 268.668C461.19 269.439 460.73 269.993 459.793 270.986L456.839 274.045V275ZM468.231 275L469.032 272.69H472.441L473.238 275H474.636L471.495 266.273H469.974L466.833 275H468.231ZM469.416 271.582L470.703 267.858H470.771L472.058 271.582H469.416ZM475.794 277.455H477.068V273.982H477.145C477.375 274.399 477.844 275.128 479.037 275.128C480.622 275.128 481.773 273.858 481.773 271.74C481.773 269.618 480.605 268.369 479.024 268.369C477.81 268.369 477.371 269.111 477.145 269.516H477.038V268.455H475.794V277.455ZM477.043 271.727C477.043 270.359 477.639 269.452 478.751 269.452C479.906 269.452 480.486 270.428 480.486 271.727C480.486 273.04 479.889 274.041 478.751 274.041C477.656 274.041 477.043 273.104 477.043 271.727ZM483.2 275H484.474V271.003C484.474 270.146 485.135 269.528 486.038 269.528C486.303 269.528 486.601 269.575 486.703 269.605V268.386C486.575 268.369 486.324 268.357 486.162 268.357C485.395 268.357 484.739 268.791 484.5 269.494H484.432V268.455H483.2V275ZM488.713 273.807H487.486L487.444 274.284C487.346 275.439 487.073 276.602 486.958 277.131H487.861C488.066 276.572 488.517 275.294 488.65 274.271L488.713 273.807ZM493.531 275H499.275V273.871H495.346V273.807L497.081 271.991C498.679 270.376 499.135 269.605 499.135 268.629C499.135 267.227 497.993 266.153 496.348 266.153C494.716 266.153 493.522 267.21 493.522 268.804H494.779C494.775 267.866 495.38 267.253 496.322 267.253C497.208 267.253 497.882 267.798 497.882 268.668C497.882 269.439 497.422 269.993 496.484 270.986L493.531 274.045V275ZM503.929 275.145C505.944 275.145 507.125 273.5 507.125 270.641C507.125 267.803 505.927 266.153 503.929 266.153C501.926 266.153 500.733 267.798 500.728 270.641C500.728 273.496 501.909 275.141 503.929 275.145ZM503.929 274.007C502.748 274.007 502.037 272.822 502.037 270.641C502.041 268.467 502.752 267.27 503.929 267.27C505.1 267.27 505.816 268.467 505.816 270.641C505.816 272.822 505.105 274.007 503.929 274.007ZM508.636 275H514.381V273.871H510.452V273.807L512.186 271.991C513.784 270.376 514.24 269.605 514.24 268.629C514.24 267.227 513.098 266.153 511.453 266.153C509.821 266.153 508.628 267.21 508.628 268.804H509.885C509.881 267.866 510.486 267.253 511.428 267.253C512.314 267.253 512.987 267.798 512.987 268.668C512.987 269.439 512.527 269.993 511.589 270.986L508.636 274.045V275ZM519.307 266.273H518.024L515.847 267.696V268.957L517.935 267.594H517.986V275H519.307V266.273Z" fill="#4B5563"/>
<path d="M479.512 292.273H480.875C480.813 290.517 479.194 289.205 476.944 289.205C474.716 289.205 472.966 290.5 472.966 292.455C472.966 294.023 474.103 294.955 475.921 295.477L477.353 295.886C478.58 296.227 479.671 296.659 479.671 297.818C479.671 299.091 478.444 299.932 476.83 299.932C475.444 299.932 474.216 299.318 474.103 298H472.648C472.785 299.909 474.33 301.205 476.83 301.205C479.512 301.205 481.035 299.727 481.035 297.841C481.035 295.659 478.966 294.955 477.762 294.636L476.58 294.318C475.716 294.091 474.33 293.636 474.33 292.386C474.33 291.273 475.353 290.455 476.898 290.455C478.307 290.455 479.375 291.125 479.512 292.273ZM485.738 301.205C487.26 301.205 488.056 300.386 488.329 299.818H488.397V301H489.738V295.25C489.738 292.477 487.624 292.159 486.51 292.159C485.192 292.159 483.692 292.614 483.01 294.205L484.283 294.659C484.579 294.023 485.277 293.341 486.556 293.341C487.789 293.341 488.397 293.994 488.397 295.114V295.159C488.397 295.807 487.738 295.75 486.147 295.955C484.527 296.165 482.76 296.523 482.76 298.523C482.76 300.227 484.079 301.205 485.738 301.205ZM485.942 300C484.874 300 484.101 299.523 484.101 298.591C484.101 297.568 485.033 297.25 486.079 297.114C486.647 297.045 488.17 296.886 488.397 296.614V297.841C488.397 298.932 487.533 300 485.942 300ZM493.526 289.364H492.185V301H493.526V289.364ZM499.641 301.182C501.414 301.182 502.709 300.295 503.118 298.977L501.823 298.614C501.482 299.523 500.692 299.977 499.641 299.977C498.067 299.977 496.982 298.96 496.92 297.091H503.255V296.523C503.255 293.273 501.323 292.159 499.505 292.159C497.141 292.159 495.573 294.023 495.573 296.705C495.573 299.386 497.118 301.182 499.641 301.182ZM496.92 295.932C497.01 294.574 497.971 293.364 499.505 293.364C500.959 293.364 501.891 294.455 501.891 295.932H496.92ZM511.476 294.227C511.056 292.989 510.113 292.159 508.385 292.159C506.545 292.159 505.181 293.205 505.181 294.682C505.181 295.886 505.897 296.693 507.499 297.068L508.954 297.409C509.834 297.614 510.249 298.034 510.249 298.636C510.249 299.386 509.454 300 508.204 300C507.107 300 506.42 299.528 506.181 298.591L504.908 298.909C505.221 300.392 506.442 301.182 508.226 301.182C510.255 301.182 511.635 300.074 511.635 298.568C511.635 297.352 510.874 296.585 509.317 296.205L508.022 295.886C506.988 295.631 506.522 295.284 506.522 294.614C506.522 293.864 507.317 293.318 508.385 293.318C509.556 293.318 510.039 293.966 510.272 294.568L511.476 294.227ZM514.631 301.091C515.194 301.091 515.654 300.631 515.654 300.068C515.654 299.506 515.194 299.045 514.631 299.045C514.069 299.045 513.608 299.506 513.608 300.068C513.608 300.631 514.069 301.091 514.631 301.091ZM514.631 294.614C515.194 294.614 515.654 294.153 515.654 293.591C515.654 293.028 515.194 292.568 514.631 292.568C514.069 292.568 513.608 293.028 513.608 293.591C513.608 294.153 514.069 294.614 514.631 294.614Z" fill="#6B7280"/>
<path d="M525.941 302.455H527.145L527.151 301.153C529.589 300.977 530.986 299.636 530.992 297.733C530.986 295.716 529.322 294.795 527.572 294.381L527.197 294.284L527.219 291.04C528.128 291.199 528.714 291.744 528.804 292.562H530.833C530.799 290.756 529.378 289.438 527.231 289.233L527.236 287.909H526.032L526.026 289.233C523.895 289.449 522.361 290.756 522.367 292.636C522.367 294.307 523.554 295.267 525.469 295.761L525.981 295.892L525.958 299.33C524.941 299.17 524.208 298.591 524.134 297.562H522.06C522.14 299.693 523.606 300.96 525.947 301.153L525.941 302.455ZM527.162 299.33L527.185 296.21C528.219 296.511 528.878 296.909 528.884 297.716C528.878 298.557 528.202 299.159 527.162 299.33ZM525.992 293.977C525.208 293.727 524.492 293.312 524.503 292.506C524.509 291.773 525.06 291.205 526.015 291.04L525.992 293.977ZM533.184 301H535.371L540.314 291.165V289.364H532.388V291.125H538.133V291.205L533.184 301ZM546.032 289.205C543.509 289.188 541.833 290.92 541.833 293.193C541.839 295.386 543.401 296.972 545.441 296.972C546.697 296.972 547.787 296.364 548.35 295.364H548.429C548.424 297.852 547.52 299.335 545.912 299.335C544.907 299.335 544.231 298.756 544.02 297.83H541.947C542.185 299.756 543.708 301.159 545.912 301.159C548.702 301.159 550.481 298.83 550.475 294.824C550.469 290.585 548.265 289.216 546.032 289.205ZM546.037 290.909C547.282 290.909 548.197 291.943 548.197 293.131C548.202 294.335 547.242 295.369 546.015 295.369C544.776 295.369 543.884 294.392 543.878 293.148C543.878 291.898 544.804 290.909 546.037 290.909ZM552.39 301H554.447V298.068L555.197 297.267L557.867 301H560.327L556.748 296.04L560.128 292.273H557.725L554.589 295.778H554.447V289.364H552.39V301Z" fill="#111827"/>
<rect x="456" y="291.15" width="10" height="10" rx="5" fill="#0E9F6E"/>
</g>
<path d="M120 369.177C120 369.177 170.061 337.886 201.349 337.886C232.637 337.886 252.974 348.316 285.044 348.316C317.114 348.316 335.887 332.671 367.175 332.671C398.463 332.671 418.8 358.747 450.87 358.747C482.94 358.747 501.713 377 533.001 377C564.289 377 584.626 324.848 616.696 324.848C648.766 324.848 667.539 356.139 698.827 356.139C730.115 356.139 750.452 340.494 782.522 340.494C814.592 340.494 834.929 371.785 866.217 371.785C897.505 371.785 917.06 319.633 948.348 319.633C979.636 319.633 1000.76 343.101 1032.04 343.101C1063.33 343.101 1082.89 311.81 1114.17 311.81C1145.46 311.81 1166.58 340.494 1197.87 340.494C1229.16 340.494 1280 274 1280 274" stroke="#0E9F6E" stroke-width="3"/>
<g filter="url(#filter2_d_3_3113)">
<rect x="509" y="369.15" width="10" height="10" rx="5" fill="#0E9F6E"/>
<rect x="510" y="370.15" width="8" height="8" rx="4" stroke="white" stroke-width="2"/>
</g>
<path d="M124.668 536.044C127.124 536.048 128.591 534.11 128.591 530.769C128.591 527.448 127.114 525.529 124.668 525.529C122.222 525.529 120.751 527.443 120.746 530.769C120.746 534.105 122.212 536.044 124.668 536.044ZM124.668 534.487C123.401 534.487 122.605 533.215 122.61 530.769C122.615 528.343 123.406 527.065 124.668 527.065C125.936 527.065 126.727 528.343 126.732 530.769C126.732 533.215 125.941 534.487 124.668 534.487ZM134.384 525.668H132.629L130.099 527.294V528.984L132.48 527.463H132.54V535.85H134.384V525.668ZM141.849 535.85L142.689 533.339H146.517L147.362 535.85H149.331L145.742 525.668H143.465L139.88 535.85H141.849ZM143.186 531.857L144.563 527.756H144.643L146.02 531.857H143.186ZM150.593 538.713H152.392V534.646H152.467C152.75 535.203 153.342 535.984 154.654 535.984C156.454 535.984 157.801 534.557 157.801 532.041C157.801 529.496 156.414 528.114 154.65 528.114C153.302 528.114 152.74 528.924 152.467 529.476H152.363V528.213H150.593V538.713ZM152.358 532.031C152.358 530.55 152.994 529.59 154.152 529.59C155.35 529.59 155.967 530.61 155.967 532.031C155.967 533.463 155.341 534.507 154.152 534.507C153.004 534.507 152.358 533.513 152.358 532.031ZM159.343 535.85H161.142V531.36C161.142 530.391 161.873 529.705 162.863 529.705C163.166 529.705 163.544 529.759 163.698 529.809V528.154C163.534 528.124 163.25 528.104 163.051 528.104C162.176 528.104 161.446 528.601 161.167 529.486H161.088V528.213H159.343V535.85Z" fill="#6B7280"/>
<path d="M309.502 536.044C311.958 536.048 313.424 534.11 313.424 530.769C313.424 527.448 311.948 525.529 309.502 525.529C307.056 525.529 305.584 527.443 305.579 530.769C305.579 534.105 307.046 536.044 309.502 536.044ZM309.502 534.487C308.234 534.487 307.438 533.215 307.443 530.769C307.448 528.343 308.239 527.065 309.502 527.065C310.769 527.065 311.56 528.343 311.565 530.769C311.565 533.215 310.774 534.487 309.502 534.487ZM315.076 535.85H322.056V534.308H317.622V534.239L319.377 532.454C321.355 530.555 321.902 529.63 321.902 528.482C321.902 526.776 320.515 525.529 318.467 525.529C316.448 525.529 315.016 526.781 315.016 528.715H316.771C316.771 527.676 317.428 527.025 318.442 527.025C319.411 527.025 320.132 527.617 320.132 528.576C320.132 529.426 319.615 530.033 318.611 531.052L315.076 534.517V535.85ZM328.651 535.85L329.491 533.339H333.319L334.165 535.85H336.133L332.544 525.668H330.267L326.682 535.85H328.651ZM329.988 531.857L331.366 527.756H331.445L332.822 531.857H329.988ZM337.395 538.713H339.195V534.646H339.269C339.552 535.203 340.144 535.984 341.457 535.984C343.256 535.984 344.604 534.557 344.604 532.041C344.604 529.496 343.217 528.114 341.452 528.114C340.104 528.114 339.543 528.924 339.269 529.476H339.165V528.213H337.395V538.713ZM339.16 532.031C339.16 530.55 339.796 529.59 340.954 529.59C342.153 529.59 342.769 530.61 342.769 532.031C342.769 533.463 342.143 534.507 340.954 534.507C339.806 534.507 339.16 533.513 339.16 532.031ZM346.145 535.85H347.945V531.36C347.945 530.391 348.675 529.705 349.665 529.705C349.968 529.705 350.346 529.759 350.5 529.809V528.154C350.336 528.124 350.052 528.104 349.854 528.104C348.979 528.104 348.248 528.601 347.969 529.486H347.89V528.213H346.145V535.85Z" fill="#6B7280"/>
<path d="M496.335 536.044C498.791 536.048 500.258 534.11 500.258 530.769C500.258 527.448 498.781 525.529 496.335 525.529C493.889 525.529 492.417 527.443 492.412 530.769C492.412 534.105 493.879 536.044 496.335 536.044ZM496.335 534.487C495.067 534.487 494.272 533.215 494.277 530.769C494.282 528.343 495.072 527.065 496.335 527.065C497.603 527.065 498.393 528.343 498.398 530.769C498.398 533.215 497.608 534.487 496.335 534.487ZM505.563 535.989C507.741 535.989 509.327 534.741 509.322 533.021C509.327 531.748 508.532 530.833 507.105 530.629V530.55C508.208 530.311 508.949 529.491 508.944 528.347C508.949 526.796 507.627 525.529 505.593 525.529C503.615 525.529 502.083 526.707 502.044 528.412H503.818C503.848 527.557 504.644 527.025 505.583 527.025C506.533 527.025 507.164 527.602 507.159 528.457C507.164 529.347 506.429 529.938 505.375 529.938H504.475V531.36H505.375C506.662 531.36 507.428 532.007 507.423 532.926C507.428 533.826 506.647 534.443 505.558 534.443C504.534 534.443 503.744 533.911 503.699 533.08H501.83C501.88 534.801 503.416 535.989 505.563 535.989ZM515.908 535.85L516.748 533.339H520.576L521.422 535.85H523.39L519.801 525.668H517.524L513.939 535.85H515.908ZM517.245 531.857L518.623 527.756H518.702L520.079 531.857H517.245ZM524.652 538.713H526.452V534.646H526.526C526.81 535.203 527.401 535.984 528.714 535.984C530.513 535.984 531.861 534.557 531.861 532.041C531.861 529.496 530.474 528.114 528.709 528.114C527.361 528.114 526.8 528.924 526.526 529.476H526.422V528.213H524.652V538.713ZM526.417 532.031C526.417 530.55 527.053 529.59 528.212 529.59C529.41 529.59 530.026 530.61 530.026 532.031C530.026 533.463 529.4 534.507 528.212 534.507C527.063 534.507 526.417 533.513 526.417 532.031ZM533.402 535.85H535.202V531.36C535.202 530.391 535.932 529.705 536.922 529.705C537.225 529.705 537.603 529.759 537.757 529.809V528.154C537.593 528.124 537.31 528.104 537.111 528.104C536.236 528.104 535.505 528.601 535.226 529.486H535.147V528.213H533.402V535.85Z" fill="#6B7280"/>
<path d="M684.168 536.044C686.624 536.048 688.091 534.11 688.091 530.769C688.091 527.448 686.614 525.529 684.168 525.529C681.722 525.529 680.251 527.443 680.246 530.769C680.246 534.105 681.712 536.044 684.168 536.044ZM684.168 534.487C682.901 534.487 682.105 533.215 682.11 530.769C682.115 528.343 682.906 527.065 684.168 527.065C685.436 527.065 686.227 528.343 686.232 530.769C686.232 533.215 685.441 534.487 684.168 534.487ZM689.559 533.96H694.416V535.85H696.176V533.96H697.479V532.444H696.176V525.668H693.879L689.559 532.494V533.96ZM694.436 532.444H691.448V532.365L694.356 527.756H694.436V532.444ZM703.947 535.85L704.787 533.339H708.615L709.46 535.85H711.429L707.839 525.668H705.562L701.978 535.85H703.947ZM705.284 531.857L706.661 527.756H706.741L708.118 531.857H705.284ZM712.69 538.713H714.49V534.646H714.565C714.848 535.203 715.44 535.984 716.752 535.984C718.552 535.984 719.899 534.557 719.899 532.041C719.899 529.496 718.512 528.114 716.747 528.114C715.4 528.114 714.838 528.924 714.565 529.476H714.46V528.213H712.69V538.713ZM714.455 532.031C714.455 530.55 715.092 529.59 716.25 529.59C717.448 529.59 718.065 530.61 718.065 532.031C718.065 533.463 717.438 534.507 716.25 534.507C715.102 534.507 714.455 533.513 714.455 532.031ZM721.44 535.85H723.24V531.36C723.24 530.391 723.971 529.705 724.96 529.705C725.263 529.705 725.641 529.759 725.795 529.809V528.154C725.631 528.124 725.348 528.104 725.149 528.104C724.274 528.104 723.543 528.601 723.265 529.486H723.185V528.213H721.44V535.85Z" fill="#6B7280"/>
<path d="M872.002 536.044C874.458 536.048 875.924 534.11 875.924 530.769C875.924 527.448 874.448 525.529 872.002 525.529C869.556 525.529 868.084 527.443 868.079 530.769C868.079 534.105 869.546 536.044 872.002 536.044ZM872.002 534.487C870.734 534.487 869.938 533.215 869.943 530.769C869.948 528.343 870.739 527.065 872.002 527.065C873.269 527.065 874.06 528.343 874.065 530.769C874.065 533.215 873.274 534.487 872.002 534.487ZM881.116 535.989C883.268 535.989 884.77 534.527 884.77 532.504C884.77 530.545 883.408 529.133 881.558 529.133C880.733 529.133 880.002 529.461 879.624 529.909H879.565L879.858 527.209H884.238V525.668H878.332L877.8 530.918L879.465 531.191C879.808 530.813 880.455 530.56 881.066 530.565C882.185 530.57 882.99 531.395 882.985 532.548C882.99 533.687 882.205 534.497 881.116 534.497C880.196 534.497 879.455 533.916 879.391 533.08H877.601C877.651 534.771 879.127 535.989 881.116 535.989ZM891.315 535.85L892.155 533.339H895.983L896.828 535.85H898.797L895.208 525.668H892.931L889.346 535.85H891.315ZM892.652 531.857L894.029 527.756H894.109L895.486 531.857H892.652ZM900.059 538.713H901.858V534.646H901.933C902.216 535.203 902.808 535.984 904.121 535.984C905.92 535.984 907.268 534.557 907.268 532.041C907.268 529.496 905.88 528.114 904.116 528.114C902.768 528.114 902.206 528.924 901.933 529.476H901.829V528.213H900.059V538.713ZM901.824 532.031C901.824 530.55 902.46 529.59 903.618 529.59C904.817 529.59 905.433 530.61 905.433 532.031C905.433 533.463 904.807 534.507 903.618 534.507C902.47 534.507 901.824 533.513 901.824 532.031ZM908.809 535.85H910.608V531.36C910.608 530.391 911.339 529.705 912.329 529.705C912.632 529.705 913.01 529.759 913.164 529.809V528.154C913 528.124 912.716 528.104 912.518 528.104C911.643 528.104 910.912 528.601 910.633 529.486H910.554V528.213H908.809V535.85Z" fill="#6B7280"/>
<path d="M1059.83 536.044C1062.29 536.048 1063.76 534.11 1063.76 530.769C1063.76 527.448 1062.28 525.529 1059.83 525.529C1057.39 525.529 1055.92 527.443 1055.91 530.769C1055.91 534.105 1057.38 536.044 1059.83 536.044ZM1059.83 534.487C1058.57 534.487 1057.77 533.215 1057.78 530.769C1057.78 528.343 1058.57 527.065 1059.83 527.065C1061.1 527.065 1061.89 528.343 1061.9 530.769C1061.9 533.215 1061.11 534.487 1059.83 534.487ZM1069.14 535.989C1071.34 536.004 1072.81 534.492 1072.81 532.479C1072.81 530.555 1071.44 529.163 1069.66 529.163C1068.56 529.163 1067.6 529.695 1067.11 530.57H1067.04C1067.04 528.427 1067.83 527.124 1069.24 527.124C1070.12 527.124 1070.71 527.632 1070.9 528.412H1072.71C1072.49 526.767 1071.17 525.529 1069.24 525.529C1066.8 525.529 1065.25 527.567 1065.25 531.047C1065.25 534.781 1067.18 535.979 1069.14 535.989ZM1069.13 534.497C1068.04 534.497 1067.24 533.597 1067.24 532.534C1067.25 531.465 1068.07 530.57 1069.15 530.57C1070.23 530.57 1071.02 531.425 1071.02 532.519C1071.02 533.632 1070.21 534.497 1069.13 534.497ZM1079.37 535.85L1080.21 533.339H1084.04L1084.88 535.85H1086.85L1083.26 525.668H1080.98L1077.4 535.85H1079.37ZM1080.7 531.857L1082.08 527.756H1082.16L1083.54 531.857H1080.7ZM1088.11 538.713H1089.91V534.646H1089.99C1090.27 535.203 1090.86 535.984 1092.17 535.984C1093.97 535.984 1095.32 534.557 1095.32 532.041C1095.32 529.496 1093.93 528.114 1092.17 528.114C1090.82 528.114 1090.26 528.924 1089.99 529.476H1089.88V528.213H1088.11V538.713ZM1089.88 532.031C1089.88 530.55 1090.51 529.59 1091.67 529.59C1092.87 529.59 1093.49 530.61 1093.49 532.031C1093.49 533.463 1092.86 534.507 1091.67 534.507C1090.52 534.507 1089.88 533.513 1089.88 532.031ZM1096.86 535.85H1098.66V531.36C1098.66 530.391 1099.39 529.705 1100.38 529.705C1100.68 529.705 1101.06 529.759 1101.22 529.809V528.154C1101.05 528.124 1100.77 528.104 1100.57 528.104C1099.69 528.104 1098.96 528.601 1098.69 529.486H1098.61V528.213H1096.86V535.85Z" fill="#6B7280"/>
<path d="M1247.67 536.044C1250.12 536.048 1251.59 534.11 1251.59 530.769C1251.59 527.448 1250.11 525.529 1247.67 525.529C1245.22 525.529 1243.75 527.443 1243.75 530.769C1243.75 534.105 1245.21 536.044 1247.67 536.044ZM1247.67 534.487C1246.4 534.487 1245.61 533.215 1245.61 530.769C1245.62 528.343 1246.41 527.065 1247.67 527.065C1248.94 527.065 1249.73 528.343 1249.73 530.769C1249.73 533.215 1248.94 534.487 1247.67 534.487ZM1253.34 535.85H1255.26L1259.58 527.244V525.668H1252.65V527.209H1257.67V527.279L1253.34 535.85ZM1266.07 535.85L1266.91 533.339H1270.73L1271.58 535.85H1273.55L1269.96 525.668H1267.68L1264.1 535.85H1266.07ZM1267.4 531.857L1268.78 527.756H1268.86L1270.24 531.857H1267.4ZM1274.81 538.713H1276.61V534.646H1276.68C1276.97 535.203 1277.56 535.984 1278.87 535.984C1280.67 535.984 1282.02 534.557 1282.02 532.041C1282.02 529.496 1280.63 528.114 1278.87 528.114C1277.52 528.114 1276.96 528.924 1276.68 529.476H1276.58V528.213H1274.81V538.713ZM1276.57 532.031C1276.57 530.55 1277.21 529.59 1278.37 529.59C1279.57 529.59 1280.18 530.61 1280.18 532.031C1280.18 533.463 1279.56 534.507 1278.37 534.507C1277.22 534.507 1276.57 533.513 1276.57 532.031ZM1283.56 535.85H1285.36V531.36C1285.36 530.391 1286.09 529.705 1287.08 529.705C1287.38 529.705 1287.76 529.759 1287.91 529.809V528.154C1287.75 528.124 1287.47 528.104 1287.27 528.104C1286.39 528.104 1285.66 528.601 1285.38 529.486H1285.3V528.213H1283.56V535.85Z" fill="#6B7280"/>
</g>
<defs>
<filter id="filter0_dd_3_3113" x="0" y="0" width="1323" height="576.85" filterUnits="userSpaceOnUse" color-interpolation-filters="sRGB">
<feFlood flood-opacity="0" result="BackgroundImageFix"/>
<feColorMatrix in="SourceAlpha" type="matrix" values="0 0 0 0 0 0 0 0 0 0 0 0 0 0 0 0 0 0 127 0" result="hardAlpha"/>
<feOffset dy="1"/>
<feGaussianBlur stdDeviation="1.5"/>
<feColorMatrix type="matrix" values="0 0 0 0 0 0 0 0 0 0 0 0 0 0 0 0 0 0 0.1 0"/>
<feBlend mode="normal" in2="BackgroundImageFix" result="effect1_dropShadow_3_3113"/>
<feColorMatrix in="SourceAlpha" type="matrix" values="0 0 0 0 0 0 0 0 0 0 0 0 0 0 0 0 0 0 127 0" result="hardAlpha"/>
<feOffset dy="1"/>
<feGaussianBlur stdDeviation="1"/>
<feColorMatrix type="matrix" values="0 0 0 0 0 0 0 0 0 0 0 0 0 0 0 0 0 0 0.06 0"/>
<feBlend mode="normal" in2="effect1_dropShadow_3_3113" result="effect2_dropShadow_3_3113"/>
<feBlend mode="normal" in="SourceGraphic" in2="effect2_dropShadow_3_3113" result="shape"/>
</filter>
<filter id="filter1_dd_3_3113" x="441" y="250.15" width="154" height="100" filterUnits="userSpaceOnUse" color-interpolation-filters="sRGB">
<feFlood flood-opacity="0" result="BackgroundImageFix"/>
<feColorMatrix in="SourceAlpha" type="matrix" values="0 0 0 0 0 0 0 0 0 0 0 0 0 0 0 0 0 0 127 0" result="hardAlpha"/>
<feOffset dy="1"/>
<feGaussianBlur stdDeviation="1.5"/>
<feColorMatrix type="matrix" values="0 0 0 0 0 0 0 0 0 0 0 0 0 0 0 0 0 0 0.1 0"/>
<feBlend mode="normal" in2="BackgroundImageFix" result="effect1_dropShadow_3_3113"/>
<feColorMatrix in="SourceAlpha" type="matrix" values="0 0 0 0 0 0 0 0 0 0 0 0 0 0 0 0 0 0 127 0" result="hardAlpha"/>
<feOffset dy="1"/>
<feGaussianBlur stdDeviation="1"/>
<feColorMatrix type="matrix" values="0 0 0 0 0 0 0 0 0 0 0 0 0 0 0 0 0 0 0.06 0"/>
<feBlend mode="normal" in2="effect1_dropShadow_3_3113" result="effect2_dropShadow_3_3113"/>
<feBlend mode="normal" in="SourceGraphic" in2="effect2_dropShadow_3_3113" result="shape"/>
</filter>
<filter id="filter2_d_3_3113" x="505" y="367.15" width="18" height="18" filterUnits="userSpaceOnUse" color-interpolation-filters="sRGB">
<feFlood flood-opacity="0" result="BackgroundImageFix"/>
<feColorMatrix in="SourceAlpha" type="matrix" values="0 0 0 0 0 0 0 0 0 0 0 0 0 0 0 0 0 0 127 0" result="hardAlpha"/>
<feOffset dy="2"/>
<feGaussianBlur stdDeviation="2"/>
<feColorMatrix type="matrix" values="0 0 0 0 0.268354 0 0 0 0 0.268354 0 0 0 0 0.31049 0 0 0 0.15 0"/>
<feBlend mode="normal" in2="BackgroundImageFix" result="effect1_dropShadow_3_3113"/>
<feBlend mode="normal" in="SourceGraphic" in2="effect1_dropShadow_3_3113" result="shape"/>
</filter>
<clipPath id="clip0_3_3113">
<rect width="155" height="101" fill="white" transform="translate(441 248.15)"/>
</clipPath>
</defs>
</svg>
